<svg
    xmlns="http://www.w3.org/2000/svg"
    viewBox="0 0 2000 2000"
    id="vector">
    <path
        id="path"
        d="M 1706.3 653.8 C 1695.2 559 1666.4 469.5 1618.6 387.1 C 1523.1 221.7 1383.7 109.7 1200.4 53.4 C 1147.3 37 1092.7 29.9 1037.5 26.3 C 1033.6 25.9 1029.3 25.2 1025 24.5 C 999.3 24.5 973.3 24.5 947.6 24.5 C 928.3 27 909.1 29.5 889.8 32.3 C 617.8 73.3 390 271.9 312.6 536 C 299.4 581.3 288.7 627.3 288 675 C 288 678.6 286.9 682.1 286.6 685.7 C 286.6 725.3 286.6 765.2 286.6 804.8 C 287.7 819.8 288.7 834.4 288.7 849.7 C 294 921 310.1 990.2 330.4 1058.3 C 371.4 1197.3 434.5 1326 512.6 1447.6 C 637.7 1643 793.5 1810.9 972.5 1958.1 C 978.2 1962.7 984.6 1967 990.7 1971.3 C 994.6 1971.3 998.5 1971.3 1002.5 1971.3 C 1064.5 1925.7 1121.2 1874 1175.8 1820.1 C 1326.2 1671.8 1454.9 1507.4 1555.5 1321.3 C 1624.7 1193.3 1673.5 1057.8 1697 914.2 C 1703.4 875.3 1705.9 836.1 1710.2 796.9 C 1710.6 793 1711.3 789.1 1712 785.1 C 1712 759.8 1712 734.8 1712 709.5 C 1709.9 691.2 1708.5 672.3 1706.3 653.8 Z"
        fill="#dc3912"
        stroke="#ffffff"
        stroke-width="50"/>
    <path
        id="path_1"
        d="M 937.6 635.1 C 952 620.7 965.6 606.7 980 592.3 C 890.8 507.1 802.8 422.3 713.6 336.7 C 708.4 343.1 703.6 348.7 698.8 354.3 C 698.4 354.7 699.6 355.9 700.4 356.7 C 744.4 402.3 788 447.9 832 493.9 C 844.4 506.7 856.4 519.9 868.4 532.7 C 870.4 534.7 870.4 536.7 868.4 538.7 C 865.2 541.5 862 545.1 858.8 548.3 C 798 489.9 737.6 431.9 677.6 374.3 C 672 379.9 666.4 385.1 660.8 390.3 C 662.8 391.9 664.4 393.9 666.4 395.9 C 713.6 444.7 760.4 493.9 807.2 542.7 C 815.6 551.1 823.6 560.3 832 569.1 C 834 571.1 834 572.7 832 574.7 C 828.8 577.9 825.6 581.1 822 584.7 C 761.2 526.3 700.8 468.3 641.2 411.1 C 635.6 416.3 630 421.5 624.4 426.7 C 682.4 487.5 740.8 547.9 798 607.5 C 793.2 612.3 789.2 616.3 784.8 620.7 C 724.8 563.1 664.4 505.1 603.6 446.7 C 598 452.3 592.8 457.5 587.2 462.7 C 587.2 462.7 587.2 463.1 587.2 463.1 C 588.4 464.3 589.6 465.1 590.4 465.9 C 673.6 552.7 756.8 639.1 840 725.9 C 841.2 726.7 841.6 728.3 842.8 730.3 C 858 715.1 872 701.1 886.4 686.7 C 1023.2 823.5 1160 960.7 1296.4 1097.1 C 1313.6 1079.9 1330.8 1062.7 1348 1045.5 C 1211.6 909.1 1074.8 772.3 937.6 635.1 Z"
        fill="#fcfcfc"/>
    <path
        id="path_2"
        d="M 1385.6 450.7 C 1378.8 407.1 1345.6 377.1 1301.6 374.3 C 1274.8 372.7 1249.6 377.9 1225.6 388.3 C 1157.2 417.9 1109.6 468.3 1082 537.1 C 1070 566.7 1068.4 597.5 1076.4 628.7 C 1076.8 630.3 1076 632.7 1074.8 633.9 C 1058.4 650.7 1041.6 667.5 1024.8 684.3 C 1024 685.1 1022.8 686.3 1022.4 686.7 C 1040 704.3 1057.2 721.5 1075.2 739.5 C 1075.6 738.7 1076.4 737.5 1077.6 736.3 C 1094 719.5 1110.4 703.1 1126.8 686.7 C 1129.2 684.3 1131.6 683.9 1134.8 684.3 C 1144.8 686.3 1154.8 688.3 1164.8 688.7 C 1189.6 689.5 1212.8 682.7 1235.2 673.5 C 1273.6 657.5 1304.4 631.9 1331.2 601.1 C 1357.6 571.1 1375.6 536.3 1384.4 497.1 C 1385.6 491.5 1386.4 485.5 1387.2 479.5 C 1387.2 473.5 1387.2 467.1 1387.2 461.1 C 1386.8 457.5 1386 454.3 1385.6 450.7 Z"
        fill="#fcfcfc"/>
    <path
        id="path_3"
        d="M 664 1045.9 C 680.8 1062.7 698.4 1080.3 716 1097.9 C 807.2 1006.7 898.4 915.1 990 823.1 C 972.4 805.1 955.2 787.9 938.8 771.1 C 846.8 863.1 755.2 954.7 664 1045.9 Z"
        fill="#fcfcfc"/>
</svg>
