<svg
    xmlns="http://www.w3.org/2000/svg"
    viewBox="0 0 2000 2000"
    id="vector">
    <path
        id="path"
        d="M 1707 655.8 C 1695.9 561 1667.1 471.5 1619.3 389.1 C 1523.8 223.7 1384.4 111.7 1201.1 55.4 C 1148 39 1093.4 31.9 1038.1 28.3 C 1034.2 27.9 1029.9 27.2 1025.6 26.5 C 999.9 26.5 973.9 26.5 948.2 26.5 C 928.9 29 909.7 31.5 890.4 34.3 C 618.4 75.3 390.6 273.9 313.2 538 C 300 583.3 289.3 629.3 288.6 677 C 288.6 680.6 287.5 684.1 287.2 687.7 C 287.2 727.3 287.2 767.2 287.2 806.8 C 288.3 821.8 289.3 836.4 289.3 851.7 C 294.6 923 310.7 992.2 331 1060.3 C 372 1199.3 435.1 1328 513.2 1449.6 C 638.3 1645 794.1 1812.9 973.1 1960.1 C 978.8 1964.7 985.2 1969 991.3 1973.3 C 995.2 1973.3 999.1 1973.3 1003.1 1973.3 C 1065.1 1927.7 1121.8 1876 1176.4 1822.1 C 1326.8 1673.8 1455.5 1509.4 1556.1 1323.3 C 1625.3 1195.3 1674.1 1059.8 1697.6 916.2 C 1704 877.3 1706.5 838.1 1710.8 798.9 C 1711.2 795 1711.9 791.1 1712.6 787.1 C 1712.6 761.8 1712.6 736.8 1712.6 711.5 C 1710.5 693.2 1709.1 674.3 1707 655.8 Z"
        fill="#ff9900"
        stroke="#ffffff"
        stroke-width="50"/>
    <path
        id="path_1"
        d="M 664.9 769.2 C 664.2 737.1 646 714.7 621.4 695 C 607.5 683.9 595 670.4 584.7 655.8 C 567.9 631.9 577.6 600.2 605.4 591.3 C 707.7 558.9 796.8 501.5 887.8 447.3 C 907.8 435.5 928.4 424.8 949.1 413.8 C 985.1 394.5 1021.1 394.2 1056.8 414.2 C 1115.6 447.4 1173 483.4 1232.6 514.7 C 1282.9 541.1 1335.3 564.3 1387.7 586.4 C 1425.1 602.1 1435.5 627.4 1411.6 659.5 C 1399.5 675.9 1385.6 690.9 1371.3 704.8 C 1353.5 722.3 1341 741.9 1340.6 767.2 C 1210.7 824.4 845.6 825.5 664.9 769.2 Z M 1001.8 567.4 C 970.1 569.2 944.4 583.8 923 605.9 C 919.8 609.5 918 616.6 918.7 621.6 C 922.6 656.9 936.9 688.3 959.7 715 C 983.2 742.5 1013.2 745.3 1038.5 721.8 C 1068.4 694 1082 657.6 1087.7 618.1 C 1088.1 614.5 1085.6 609.2 1082.7 606.3 C 1060.6 583.8 1034.6 568.4 1001.8 567.4 Z"
        fill="#ffffff"/>
    <path
        id="path_2"
        d="M 666.7 843 C 892 900 1113 897.2 1335.9 843.7 C 1302.4 936.4 1185.5 1067.6 1019.3 1075.4 C 857.8 1082.9 726.9 977.4 666.7 843 Z"
        fill="#ffffff"/>
</svg>
