<svg
    xmlns="http://www.w3.org/2000/svg"
    viewBox="0 0 612 612"
    id="vector">
    <path
        id="path"
        d="M 522.3 200.1 C 518.9 171.1 510.1 143.7 495.5 118.5 C 466.3 67.9 423.6 33.6 367.5 16.4 C 351.3 11.4 334.5 9.2 317.6 8.1 C 316.4 8 315.1 7.8 313.8 7.5 C 305.9 7.5 298 7.5 290.1 7.5 C 284.2 8.3 278.3 9 272.4 9.9 C 189.2 22.4 119.5 83.2 95.8 164 C 91.8 177.9 88.5 191.9 88.3 206.5 C 88.3 207.6 88 208.7 87.9 209.8 C 87.9 221.9 87.9 234.1 87.9 246.2 C 88.2 250.8 88.5 255.3 88.5 259.9 C 90.1 281.7 95 302.9 101.3 323.7 C 113.8 366.2 133.2 405.6 157.1 442.8 C 195.4 502.6 243.1 554 297.8 599 C 299.5 600.4 301.5 601.7 303.4 603 C 304.6 603 305.8 603 307 603 C 326 589 343.3 573.2 360 556.7 C 406 511.3 445.4 461 476.2 404.1 C 497.4 364.9 512.3 323.5 519.5 279.5 C 521.5 267.6 522.2 255.6 523.5 243.6 C 523.6 242.4 523.8 241.2 524.1 240 C 524.1 232.3 524.1 224.6 524.1 216.9 C 523.4 211.5 523 205.7 522.3 200.1 Z"
        fill="#990099"
        stroke="#ffffff"
        stroke-width="20"/>
    <path
        id="path_1"
        d="M 139 305.9 C 139 297.9 139 289.8 139 281.8 C 145.7 281.8 152.3 281.8 158.9 281.8 C 158.8 279.4 158.6 277.5 158.6 275.7 C 158.6 231.4 158.6 187 158.6 142.7 C 158.6 133.4 163.1 128.9 172.4 128.9 C 192 128.9 211.5 128.9 231.1 128.9 C 232.1 128.9 233.2 129 234.4 129.1 C 234.4 130.8 234.4 132.2 234.4 133.6 C 234.4 180.2 234.4 226.9 234.4 273.5 C 234.4 281.7 235 282.2 242.5 281.7 C 242.7 281.7 242.8 281.5 243 281.4 C 242.9 279.5 242.8 277.7 242.8 275.9 C 242.8 214.4 242.8 152.9 242.8 91.3 C 242.8 82.2 247.3 77.7 256.4 77.7 C 289.3 77.7 322.3 77.7 355.2 77.7 C 365.2 77.7 369.4 82 369.4 92 C 369.4 153.1 369.4 214.2 369.4 275.2 C 369.4 277.3 369.4 279.4 369.4 281.5 C 377.4 281.8 376.9 283.3 377.7 274 C 377.8 273 377.7 272 377.7 271.1 C 377.7 225.1 377.7 179.2 377.7 133.2 C 377.7 131.8 377.7 130.5 377.7 129 C 378.8 128.9 379.5 128.8 380.1 128.8 C 400.9 128.8 421.6 128.7 442.4 128.8 C 450.4 128.8 455 133.6 455 141.8 C 455 186.7 455 231.6 455 276.5 C 455 278.2 455 279.9 455 281.8 C 461.2 281.8 467.2 281.8 473.1 281.8 C 473.1 289.8 473.1 297.9 473.1 305.9 C 472.2 305.9 471.4 305.9 470.5 305.9 C 360.9 305.9 251.3 305.9 141.8 305.9 C 140.8 305.9 139.9 305.9 139 305.9 Z M 305.9 165.8 C 328.8 165.8 347.5 147.3 347.6 124.5 C 347.7 101.7 329 82.9 306.2 82.8 C 283.2 82.7 264.4 101.4 264.4 124.3 C 264.4 147.1 283.1 165.8 305.9 165.8 Z M 332 280.7 C 332 260.1 332 239.7 332 219.3 C 315.5 219.3 299.1 219.3 282.8 219.3 C 282.8 239.9 282.8 260.2 282.8 280.7 C 299.2 280.7 315.4 280.7 332 280.7 Z M 177.4 216.6 C 177.4 222.4 177.4 227.8 177.4 233.2 C 183 233.2 188.4 233.2 193.8 233.2 C 193.8 227.6 193.8 222.1 193.8 216.6 C 188.2 216.6 182.9 216.6 177.4 216.6 Z M 220.2 216.8 C 214.4 216.8 209.1 216.8 203.7 216.8 C 203.7 222.5 203.7 227.9 203.7 233.3 C 209.3 233.3 214.7 233.3 220.2 233.3 C 220.2 227.7 220.2 222.3 220.2 216.8 Z M 439.4 233.4 C 439.4 227.6 439.4 222.2 439.4 216.8 C 433.8 216.8 428.4 216.8 423 216.8 C 423 222.5 423 227.9 423 233.4 C 428.5 233.4 433.8 233.4 439.4 233.4 Z M 177.3 174.9 C 183.1 174.9 188.4 174.9 193.8 174.9 C 193.8 169.3 193.8 163.9 193.8 158.6 C 188.2 158.6 182.8 158.6 177.3 158.6 C 177.3 164.1 177.3 169.3 177.3 174.9 Z M 203.6 174.9 C 209.3 174.9 214.7 174.9 220.2 174.9 C 220.2 169.3 220.2 164 220.2 158.6 C 214.6 158.6 209.1 158.6 203.6 158.6 C 203.6 164.1 203.6 169.4 203.6 174.9 Z M 439.4 174.9 C 439.4 169.3 439.4 164 439.4 158.5 C 433.8 158.5 428.3 158.5 422.9 158.5 C 422.9 164.1 422.9 169.5 422.9 174.9 C 428.6 174.9 433.9 174.9 439.4 174.9 Z M 193.8 203.6 C 193.8 198 193.8 192.6 193.8 187.1 C 188.2 187.1 182.9 187.1 177.4 187.1 C 177.4 192.7 177.4 198 177.4 203.6 C 182.9 203.6 188.3 203.6 193.8 203.6 Z M 220.2 203.6 C 220.2 197.9 220.2 192.6 220.2 187.1 C 214.6 187.1 209.2 187.1 203.7 187.1 C 203.7 192.7 203.7 198 203.7 203.6 C 209.2 203.6 214.5 203.6 220.2 203.6 Z M 439.4 187.2 C 433.8 187.2 428.3 187.2 422.9 187.2 C 422.9 192.8 422.9 198.2 422.9 203.6 C 428.5 203.6 433.9 203.6 439.4 203.6 C 439.4 198.1 439.4 192.7 439.4 187.2 Z M 396.5 174.9 C 402.2 174.9 407.6 174.9 412.9 174.9 C 412.9 169.3 412.9 163.9 412.9 158.6 C 407.3 158.6 401.9 158.6 396.5 158.6 C 396.5 164.1 396.5 169.3 396.5 174.9 Z M 396.6 187.1 C 396.6 192.8 396.6 198.1 396.6 203.6 C 402.1 203.6 407.5 203.6 413 203.6 C 413 198 413 192.6 413 187.1 C 407.4 187.1 402.1 187.1 396.6 187.1 Z M 396.6 233.2 C 402.2 233.2 407.7 233.2 413 233.2 C 413 227.6 413 222.2 413 216.7 C 407.4 216.7 402 216.7 396.6 216.7 C 396.6 222.3 396.6 227.7 396.6 233.2 Z"
        fill="#ffffff"/>
    <path
        id="path_2"
        d="M 295.8 134.7 C 290.3 134.7 285.3 134.7 280.1 134.7 C 280.1 127.8 280.1 121.1 280.1 114.1 C 285.2 114.1 290.2 114.1 295.6 114.1 C 295.6 108.7 295.6 103.6 295.6 98.3 C 302.6 98.3 309.3 98.3 316.3 98.3 C 316.3 103.4 316.3 108.5 316.3 113.8 C 321.7 113.8 326.7 113.8 332 113.8 C 332 120.8 332 127.5 332 134.5 C 327 134.5 321.9 134.5 316.5 134.5 C 316.5 139.9 316.5 145 316.5 150.3 C 309.5 150.3 302.8 150.3 295.8 150.3 C 295.8 145.3 295.8 140.3 295.8 134.7 Z"
        fill="#ffffff"/>
</svg>
