<svg
    xmlns="http://www.w3.org/2000/svg"
    viewBox="0 0 2000 2000"
    id="vector">
    <path
        id="path"
        d="M 1707 653.8 C 1695.9 559 1667.1 469.5 1619.3 387.1 C 1523.8 221.7 1384.4 109.7 1201.1 53.4 C 1148 37 1093.4 29.9 1038.1 26.3 C 1034.2 25.9 1029.9 25.2 1025.6 24.5 C 999.9 24.5 973.9 24.5 948.2 24.5 C 928.9 27 909.7 29.5 890.4 32.3 C 618.4 73.3 390.6 271.9 313.2 536 C 300 581.3 289.3 627.3 288.6 675 C 288.6 678.6 287.5 682.1 287.2 685.7 C 287.2 725.3 287.2 765.2 287.2 804.8 C 288.3 819.8 289.3 834.4 289.3 849.7 C 294.6 921 310.7 990.2 331 1058.3 C 372 1197.3 435.1 1326 513.2 1447.6 C 638.3 1643 794.1 1810.9 973.1 1958.1 C 978.8 1962.7 985.2 1967 991.3 1971.3 C 995.2 1971.3 999.1 1971.3 1003.1 1971.3 C 1065.1 1925.7 1121.8 1874 1176.4 1820.1 C 1326.8 1671.8 1455.5 1507.4 1556.1 1321.3 C 1625.3 1193.3 1674.1 1057.8 1697.6 914.2 C 1704 875.3 1706.5 836.1 1710.8 796.9 C 1711.2 793 1711.9 789.1 1712.6 785.1 C 1712.6 759.8 1712.6 734.8 1712.6 709.5 C 1710.5 691.2 1709.1 672.3 1707 653.8 Z"
        fill="#109618"
        stroke="#ffffff"
        stroke-width="50"/>
    <path
        id="path_1"
        d="M 806.1 692.5 C 809.7 692.5 812.2 692.5 814.7 692.5 C 933.1 692.5 1051.4 692.5 1169.8 692.5 C 1176.6 692.5 1178.7 690.7 1178.7 683.9 C 1178.3 639 1178.7 594.4 1178.3 549.5 C 1178.3 532.4 1182.2 516.7 1194 503.9 C 1217.9 478.2 1257.1 483.9 1273.1 515.3 C 1278.4 525.6 1280.6 536.7 1280.6 548.1 C 1280.6 675.4 1280.6 802.6 1280.6 929.9 C 1280.6 950.2 1274.2 968 1257.4 980.9 C 1233.5 999.1 1200 990.5 1185.7 963.4 C 1180 952.3 1177.9 940.2 1177.9 927.7 C 1177.9 883.1 1177.9 838.6 1177.9 794 C 1177.9 787.6 1176.5 785.4 1169.7 785.4 C 1051 785.8 931.9 785.4 813.2 785.4 C 811.1 785.4 808.6 785.8 805.4 785.8 C 805.4 789 805.4 791.9 805.4 794.7 C 805.4 839.3 805.4 883.8 805.4 928.4 C 805.4 945.5 801.5 961.2 789.7 974 C 766.2 999.7 726.2 994.3 710.9 962.2 C 706.3 952.6 703.4 941.5 703.4 931.2 C 703 803 703 674.7 703 546.7 C 703 526.4 709.8 508.9 726.5 496.8 C 751.1 479 783.5 487.9 797.8 515.3 C 803.5 526.4 805.3 538.1 805.3 550.2 C 805.3 594.4 805.3 638.3 805.3 682.5 C 806.1 685.7 806.1 688.2 806.1 692.5 Z"
        fill="#ffffff"/>
    <path
        id="path_2"
        d="M 1386.8 739.9 C 1386.8 783.8 1386.8 827.6 1386.8 871.5 C 1386.8 892.9 1376.5 907.9 1357.6 912.1 C 1326.9 919.2 1304.5 900.7 1304.5 872.9 C 1304.5 783.8 1304.5 694.6 1304.5 605.5 C 1304.5 584.1 1318 568.1 1336.9 565.2 C 1360.1 561.6 1379 572.3 1384.7 593 C 1386.1 598 1386.5 603.7 1386.5 609 C 1387.2 652.6 1386.8 696.4 1386.8 739.9 Z"
        fill="#ffffff"/>
    <path
        id="path_3"
        d="M 682 739.2 C 682 783.4 682 827.3 682 871.5 C 682 892.9 670.9 908.6 652.1 912.5 C 621.4 918.9 599.7 900.4 599.7 872.9 C 599.7 783.8 599.7 694.6 599.7 605.5 C 599.7 584.8 611.8 569.8 630.4 565.6 C 650.4 561 670 569.2 677.5 586.3 C 680.4 593.1 681.8 600.9 681.8 608 C 682.4 652.2 682 695.7 682 739.2 Z"
        fill="#ffffff"/>
    <path
        id="path_4"
        d="M 1441.7 739.2 C 1441.7 757 1441.7 774.9 1441.7 793 C 1441.7 796.9 1441.3 801.2 1440.3 804.8 C 1438.2 811.6 1432.1 815.9 1426.4 815.9 C 1420.3 815.5 1414.3 810.6 1412.5 803.4 C 1411.8 799.5 1411.1 795.6 1411.1 791.6 C 1411.1 756.7 1410.7 721.7 1411.1 686.8 C 1411.1 681.1 1412.2 674.7 1414.7 670 C 1420.4 659.7 1432.9 660 1438.2 670.7 C 1440.3 675 1441.1 680 1441.4 685 C 1442.1 702.9 1441.7 721 1441.7 739.2 Z"
        fill="#ffffff"/>
    <path
        id="path_5"
        d="M 550.8 738.5 C 550.8 720.7 550.8 702.8 550.8 684.7 C 550.8 680.8 551.5 676.5 552.6 672.9 C 555.1 666.1 561.2 661.8 567.2 662.6 C 574.3 663.7 578.6 668.3 580.4 674.7 C 581.5 678.6 581.8 682.5 581.8 686.5 C 581.8 721.4 581.8 756.4 581.8 791.3 C 581.8 796.6 580.7 802 578.9 807 C 576.8 812.3 572.1 816.6 566.4 815.2 C 561.8 814.1 557.1 810.6 554.6 807 C 552.1 803.4 551.7 798.1 551.7 793.5 C 550.4 775.2 550.8 757 550.8 738.5 Z"
        fill="#ffffff"/>
</svg>
