<svg
    xmlns="http://www.w3.org/2000/svg"
    viewBox="0 0 2000 2000"
    id="vector">
    <path
        id="path"
        d="M 1707 653.8 C 1695.9 559 1667.1 469.5 1619.3 387.1 C 1523.8 221.7 1384.4 109.7 1201.1 53.4 C 1148 37 1093.4 29.9 1038.1 26.3 C 1034.2 25.9 1029.9 25.2 1025.6 24.5 C 999.9 24.5 973.9 24.5 948.2 24.5 C 928.9 27 909.7 29.5 890.4 32.3 C 618.4 73.3 390.6 271.9 313.2 536 C 300 581.3 289.3 627.3 288.6 675 C 288.6 678.6 287.5 682.1 287.2 685.7 C 287.2 725.3 287.2 765.2 287.2 804.8 C 288.3 819.8 289.3 834.4 289.3 849.7 C 294.6 921 310.7 990.2 331 1058.3 C 372 1197.3 435.1 1326 513.2 1447.6 C 638.3 1643 794.1 1810.9 973.1 1958.1 C 978.8 1962.7 985.2 1967 991.3 1971.3 C 995.2 1971.3 999.1 1971.3 1003.1 1971.3 C 1065.1 1925.7 1121.8 1874 1176.4 1820.1 C 1326.8 1671.8 1455.5 1507.4 1556.1 1321.3 C 1625.3 1193.3 1674.1 1057.8 1697.6 914.2 C 1704 875.3 1706.5 836.1 1710.8 796.9 C 1711.2 793 1711.9 789.1 1712.6 785.1 C 1712.6 759.8 1712.6 734.8 1712.6 709.5 C 1710.5 691.2 1709.1 672.3 1707 653.8 Z"
        fill="#3366cc"
        stroke="#ffffff"
        stroke-width="50"/>
    <path
        id="path_1"
        d="M 643.1 999.8 C 643.1 985.5 642.4 971.3 643.5 957.4 C 644.6 939.6 658.5 926.7 676.3 925 C 677 925 677.4 925 678.8 924.6 C 678.8 922.5 678.8 920.7 678.8 918.5 C 678.8 907.4 678.1 896 679.5 885 C 681.3 867.2 694.5 855.1 712.3 853.3 C 713 853.3 713.4 853.3 714.4 852.9 C 714.4 757.7 714.4 662.9 714.4 567.7 C 705.1 567 696.6 563.8 689.8 557 C 683 550.2 679.8 541.7 679.1 532 C 676.6 531.6 674.1 531.3 671.6 530.9 C 656.6 527.7 645.9 515.9 643.8 500.6 C 643.4 497 644.2 495.3 647.4 493.5 C 699.8 460.7 752.2 427.9 804.3 394.7 C 857.8 360.8 911.3 327.3 965.1 293.8 C 991.8 277 1018.9 277 1045.7 294.2 C 1148.7 360.5 1251.4 426.8 1354.4 493.1 C 1357.6 495.2 1358.7 497 1358 500.9 C 1355.1 517.7 1342.3 530.1 1325.2 531.6 C 1324.5 531.6 1323.8 531.6 1322.7 532 C 1322 541.6 1319.1 550.2 1312.4 557 C 1305.6 563.8 1297.4 567.3 1287.4 567.7 C 1287.4 662.9 1287.4 757.7 1287.4 853.3 C 1289.5 853.7 1291.3 853.7 1293.5 854 C 1310.6 857.2 1322.7 871.8 1322.7 889.7 C 1322.7 901.5 1322.7 912.9 1322.7 924.6 C 1325.2 925 1327 925 1329.1 925.3 C 1344.4 928.2 1356.6 939.9 1357.6 955.6 C 1358.7 970.2 1358 984.8 1358 999.8 C 1119.4 999.8 881.3 999.8 643.1 999.8 Z M 1119.8 567.4 C 1119.8 662.6 1119.8 757.8 1119.8 852.6 C 1151.5 852.6 1182.9 852.6 1214.3 852.6 C 1214.3 757.4 1214.3 662.2 1214.3 567.4 C 1182.5 567.4 1151.5 567.4 1119.8 567.4 Z M 880.9 852.9 C 880.9 757.4 880.9 662.5 880.9 567.7 C 849.2 567.7 817.8 567.7 786.4 567.7 C 786.4 662.9 786.4 757.7 786.4 852.9 C 817.8 852.9 849.2 852.9 880.9 852.9 Z M 1047.8 567.7 C 1016.1 567.7 984.7 567.7 953.3 567.7 C 953.3 662.9 953.3 757.7 953.3 852.9 C 985 852.9 1016.4 852.9 1047.8 852.9 C 1047.8 757.8 1047.8 662.9 1047.8 567.7 Z"
        fill="#fcfcfc"/>
</svg>
