<svg
    xmlns="http://www.w3.org/2000/svg"
    viewBox="0 0 2000 2000"
    id="vector">
    <path
        id="path"
        d="M 1706.3 653.8 C 1695.2 559 1666.4 469.5 1618.6 387.1 C 1523.1 221.7 1383.7 109.7 1200.4 53.4 C 1147.3 37 1092.7 29.9 1037.5 26.3 C 1033.6 25.9 1029.3 25.2 1025 24.5 C 999.3 24.5 973.3 24.5 947.6 24.5 C 928.3 27 909.1 29.5 889.8 32.3 C 617.8 73.3 390 271.9 312.6 536 C 299.4 581.3 288.7 627.3 288 675 C 288 678.6 286.9 682.1 286.6 685.7 C 286.6 725.3 286.6 765.2 286.6 804.8 C 287.7 819.8 288.7 834.4 288.7 849.7 C 294 921 310.1 990.2 330.4 1058.3 C 371.4 1197.3 434.5 1326 512.6 1447.6 C 637.7 1643 793.5 1810.9 972.5 1958.1 C 978.2 1962.7 984.6 1967 990.7 1971.3 C 994.6 1971.3 998.5 1971.3 1002.5 1971.3 C 1064.5 1925.7 1121.2 1874 1175.8 1820.1 C 1326.2 1671.8 1454.9 1507.4 1555.5 1321.3 C 1624.7 1193.3 1673.5 1057.8 1697 914.2 C 1703.4 875.3 1705.9 836.1 1710.2 796.9 C 1710.6 793 1711.3 789.1 1712 785.1 C 1712 759.8 1712 734.8 1712 709.5 C 1709.9 691.2 1708.5 672.3 1706.3 653.8 Z"
        fill="#0099c6"
        stroke="#ffffff"
        stroke-width="50"/>
    <path
        id="path_1"
        d="M 1238.1 854.4 C 1238.1 819.5 1238.1 784.2 1238.1 749.2 C 1238.1 737.4 1233.5 727.8 1224.6 719.6 C 1210 705.7 1193.2 695.4 1174.7 687.9 C 1128.4 669 1079.9 661.9 1030.3 659 C 966.1 655.1 903 659.4 842.1 680 C 809.7 691.1 777.9 703.9 757.6 733.8 C 755.5 737 753.7 740.9 753.7 744.5 C 753.7 810.5 753.7 876.1 753.3 942 C 753.3 958.8 759 973.4 771.8 983 C 787.8 994.8 804.6 1005.8 822.4 1013.7 C 864.8 1032.2 910.1 1039 955.7 1042.2 C 1023.1 1046.5 1090.1 1042.9 1154.6 1020.8 C 1184.5 1010.8 1213.1 998 1233 971.6 C 1236.6 967.3 1238.7 960.9 1238.7 955.6 C 1239.4 921.7 1239.1 888.2 1239.1 854.4 C 1239.2 854.4 1238.9 854.4 1238.1 854.4 Z M 1202.5 961.3 C 1190.7 969.9 1178.3 977.3 1165.1 983.4 C 1128.4 1000.2 1089.2 1008.4 1048.9 1010.5 C 996.9 1013 944.4 1013.7 892.8 1003.4 C 861.8 997.3 831.8 986.3 804.4 969.9 C 780.9 956 780.2 944.9 802.6 928.9 C 822.2 914.6 845.4 907.5 868.6 900.4 C 908.5 888.3 949.9 886.5 991.2 886.9 C 991.6 886.2 991.6 885.1 991.6 884.4 C 1031.9 888.3 1072.2 890.5 1111.7 896.9 C 1134.9 900.8 1157.3 911.5 1179.4 921.1 C 1189 925.4 1196.9 932.9 1204.4 940.4 C 1211.8 948.1 1211.4 954.9 1202.5 961.3 Z"
        fill="#ffffff"/>
    <path
        id="path_2"
        d="M 1413.9 642.2 C 1360.4 615.8 1306.6 589.1 1252.8 563.4 C 1170.4 524.2 1088.1 485.3 1005.4 446.8 C 1000.4 444.3 992.6 443.6 987.9 445.7 C 851 511.4 714.4 577 577.9 643 C 575 644.4 572.6 646.2 567.9 649.1 C 583.9 659.1 598.2 668 612.8 676.2 C 618.1 679.1 619.9 682.6 619.9 688.7 C 619.5 730.8 619.9 772.8 619.5 814.9 C 619.5 819.9 618.1 825.6 615.6 829.9 C 608.5 843.1 600.6 855.2 592.8 868.4 C 615.6 874.8 636.7 873 659.8 867.7 C 652.3 854.9 645.2 843.5 639.1 832 C 637 828.1 635.2 823.4 635.2 819.2 C 635.2 781.8 635.9 744.3 636.3 706.9 C 636.7 702.3 637.7 697.6 638.8 691.6 C 669.5 708.7 698 725.1 726.5 741.2 C 750.4 703.8 762.5 692 794.2 676 C 802.8 671.7 811.7 667.4 820.6 664.2 C 867.3 646.7 915.8 638.9 965.3 637.5 C 1028.4 635.7 1091.1 638.6 1152.1 656.8 C 1200.2 671.1 1244.4 692.1 1267.3 742.7 C 1319.7 711.7 1372.1 681.4 1427 649.3 C 1421.4 645.8 1418.2 644 1413.9 642.2 Z"
        fill="#ffffff"/>
</svg>
